HIERARCHY
ROOT Hips
{
	OFFSET -0.001795 -0.223333 0.028219
	CHANNELS 6 Xposition Yposition Zposition Zrotation Yrotation Xrotation 
	JOINT LeftUpLeg
	{
		OFFSET 0.069520 -0.091406 -0.006815
		CHANNELS 3 Zrotation Yrotation Xrotation
		JOINT LeftLeg
		{
			OFFSET 0.034277 -0.375199 -0.004496
			CHANNELS 3 Zrotation Yrotation Xrotation
			JOINT LeftFoot
			{
				OFFSET -0.013596 -0.397961 -0.043693
				CHANNELS 3 Zrotation Yrotation Xrotation
				JOINT LeftToe
				{
					OFFSET 0.026358 -0.055791 0.119288
					CHANNELS 3 Zrotation Yrotation Xrotation
					End Site
					{
						OFFSET 0.000000 0.000000 0.000000
					}
				}
			}
		}
	}
	JOINT RightUpLeg
	{
		OFFSET -0.067670 -0.090522 -0.004320
		CHANNELS 3 Zrotation Yrotation Xrotation
		JOINT RightLeg
		{
			OFFSET -0.038290 -0.382569 -0.008850
			CHANNELS 3 Zrotation Yrotation Xrotation
			JOINT RightFoot
			{
				OFFSET 0.015774 -0.398415 -0.042312
				CHANNELS 3 Zrotation Yrotation Xrotation
				JOINT RightToe
				{
					OFFSET -0.025372 -0.048144 0.123348
					CHANNELS 3 Zrotation Yrotation Xrotation
					End Site
					{
						OFFSET 0.000000 0.000000 0.000000
					}
				}
			}
		}
	}
	JOINT Spine
	{
		OFFSET -0.002533 0.108963 -0.026696
		CHANNELS 3 Zrotation Yrotation Xrotation
		JOINT Spine1
		{
			OFFSET 0.005487 0.135180 0.001092
			CHANNELS 3 Zrotation Yrotation Xrotation
			JOINT Spine2
			{
				OFFSET 0.001457 0.052922 0.025425
				CHANNELS 3 Zrotation Yrotation Xrotation
				JOINT Neck
				{
					OFFSET -0.002778 0.213870 -0.042857
					CHANNELS 3 Zrotation Yrotation Xrotation
					JOINT Head
					{
						OFFSET 0.005152 0.064970 0.051349
						CHANNELS 3 Zrotation Yrotation Xrotation
						End Site
						{
							OFFSET 0.000000 0.000000 0.000000
						}
					}
				}
				JOINT LeftShoulder
				{
					OFFSET 0.078845 0.121749 -0.034090
					CHANNELS 3 Zrotation Yrotation Xrotation
					JOINT LeftArm
					{
						OFFSET 0.090977 0.030469 -0.008868
						CHANNELS 3 Zrotation Yrotation Xrotation
						JOINT LeftForeArm
						{
							OFFSET 0.259612 -0.012772 -0.027456
							CHANNELS 3 Zrotation Yrotation Xrotation
							JOINT LeftHand
							{
								OFFSET 0.249234 0.008986 -0.001171
								CHANNELS 3 Zrotation Yrotation Xrotation
								End Site
								{
									OFFSET 0.000000 0.000000 0.000000
								}
							}
						}
					}
				}
				JOINT RightShoulder
				{
					OFFSET -0.081759 0.118833 -0.038615
					CHANNELS 3 Zrotation Yrotation Xrotation
					JOINT RightArm
					{
						OFFSET -0.096012 0.032551 -0.009143
						CHANNELS 3 Zrotation Yrotation Xrotation
						JOINT RightForeArm
						{
							OFFSET -0.253742 -0.013329 -0.021401
							CHANNELS 3 Zrotation Yrotation Xrotation
							JOINT RightHand
							{
								OFFSET -0.255298 0.007772 -0.005559
								CHANNELS 3 Zrotation Yrotation Xrotation
								End Site
								{
									OFFSET 0.000000 0.000000 0.000000
								}
							}
						}
					}
				}
			}
		}
	}
}
MOTION
Frames: 11
Frame Time: 0.050000
0.025719 0.876992 0.073523 -6.691897 -8.711762 3.778289 25.545549 5.449750 -30.206175 -8.386496 4.163901 39.541140 3.801194 7.719996 -0.792373 0.000000 0.000000 0.000000 -21.385990 0.324398 -13.251945 7.995542 -0.936124 21.181186 -3.876622 -13.819280 15.383874 0.000000 0.000000 0.000000 -0.164458 -0.569525 23.693777 3.772485 -0.763639 -20.034517 6.325281 15.460143 17.046358 1.859754 0.140126 -7.727544 0.000000 0.000000 0.000000 12.559238 -18.031470 5.631164 10.679654 -29.347008 -4.282090 92.976503 12.764585 7.611400 0.000000 0.000000 0.000000 8.851074 30.660280 14.647216 36.715675 74.478594 22.513090 -102.595410 59.633676 -61.138826 0.000000 0.000000 0.000000 
0.043041 0.879622 0.088171 -7.020384 -7.731394 4.303889 24.557071 4.923387 -30.247720 -8.858460 4.150416 38.468503 4.600900 9.105236 -2.385801 0.000000 0.000000 0.000000 -20.982657 0.409255 -11.350144 7.272907 -0.810510 18.889417 -4.532251 -14.979762 16.505359 0.000000 0.000000 0.000000 -2.081526 -0.176602 23.286305 2.561227 -0.281784 -22.355836 6.002349 16.548434 19.233041 2.004696 0.153230 -7.242495 0.000000 0.000000 0.000000 12.105370 -19.288027 5.994383 14.350107 -32.330404 -5.974608 100.990220 16.123774 12.126778 0.000000 0.000000 0.000000 7.530107 31.970496 15.050707 23.967670 76.472353 14.042088 -107.887322 51.255124 -55.385209 0.000000 0.000000 0.000000 
0.056978 0.887075 0.103615 -7.053962 -6.013092 4.426211 23.957088 4.248434 -29.388219 -10.577910 4.444763 35.874249 5.626030 11.376444 -2.134138 0.000000 0.000000 0.000000 -20.311624 0.471312 -8.713109 7.436593 -0.935433 16.980909 -5.098712 -15.717589 16.768400 0.000000 0.000000 0.000000 -4.147494 0.209915 22.777355 0.324489 0.324860 -22.581995 6.391698 16.315598 19.182335 2.080343 0.335034 -8.379429 0.000000 0.000000 0.000000 11.562201 -21.095281 6.455566 16.236325 -34.917314 -7.286065 107.665237 17.225068 15.409905 0.000000 0.000000 0.000000 2.843407 32.269607 13.440388 10.669506 76.941534 4.825358 -111.360368 45.300473 -51.193643 0.000000 0.000000 0.000000 
0.066293 0.901294 0.117737 -7.857593 -4.967493 4.870995 23.909577 3.676564 -27.166648 -11.816183 4.336136 31.134074 6.830481 14.175590 -0.101305 0.000000 0.000000 0.000000 -18.207559 0.511999 -7.412846 6.877447 -0.849089 17.152818 -5.013687 -15.721851 18.942641 0.000000 0.000000 0.000000 -5.244990 0.374847 21.174104 -1.579392 0.813685 -21.684722 5.821730 16.192066 19.889337 2.256425 0.301087 -8.572334 0.000000 0.000000 0.000000 12.703855 -22.962705 6.817969 17.404059 -34.916516 -7.723494 111.996543 18.092626 17.758766 0.000000 0.000000 0.000000 -0.910900 31.009971 11.508294 1.876201 76.308635 -1.204280 -116.425454 39.411294 -47.541509 0.000000 0.000000 0.000000 
0.071408 0.916278 0.128867 -9.361967 -4.968812 5.496701 24.103955 3.213686 -23.925819 -10.569964 3.443932 27.133920 6.661905 13.799375 -0.829130 0.000000 0.000000 0.000000 -15.713219 0.491655 -9.414774 8.128453 -1.186605 19.656033 -4.509965 -14.945199 18.901906 0.000000 0.000000 0.000000 -6.885717 0.717363 20.657653 -1.094440 0.738993 -23.837545 6.355005 15.513648 22.472251 2.089747 0.623452 -10.068132 0.000000 0.000000 0.000000 13.430708 -21.842899 6.487831 17.692972 -35.811176 -8.095329 113.349231 17.186451 17.182486 0.000000 0.000000 0.000000 -4.562761 30.227222 9.728793 -2.821402 76.411440 -4.428288 -118.649130 35.386369 -43.847570 0.000000 0.000000 0.000000 
0.074767 0.929960 0.136652 -11.095852 -5.567918 6.237366 24.774563 3.093357 -21.596411 -9.318375 2.690624 22.860602 7.020034 14.769126 1.914359 0.000000 0.000000 0.000000 -12.549285 0.632195 -14.242350 8.446703 -1.286905 24.856038 -4.498481 -15.054035 18.932629 0.000000 0.000000 0.000000 -7.445147 0.817916 19.540079 -0.718543 0.615652 -23.275672 6.046419 13.449147 22.861254 0.780032 1.342511 -10.155829 0.000000 0.000000 0.000000 20.405978 -20.951246 5.582650 12.859732 -34.027968 -6.116878 113.745321 21.488374 23.788337 0.000000 0.000000 0.000000 -6.340945 29.864846 8.918864 2.489739 76.261323 -0.946655 -120.031487 35.462798 -45.448828 0.000000 0.000000 0.000000 
0.077103 0.936693 0.144014 -12.037906 -5.720104 7.186203 25.769795 3.206982 -20.995728 -8.500890 2.277805 20.674354 6.008121 13.027090 4.155412 0.000000 0.000000 0.000000 -10.312513 0.944081 -18.840111 8.213154 -1.185033 24.223109 -2.404618 -12.006134 19.814655 0.000000 0.000000 0.000000 -7.306745 0.828766 19.906978 -0.346532 0.572997 -25.067686 4.677962 9.971325 24.189711 0.420226 1.059261 -8.729379 0.000000 0.000000 0.000000 25.275682 -17.910667 4.091378 10.582940 -32.872774 -4.881196 112.765685 21.644545 25.459795 0.000000 0.000000 0.000000 -4.589465 28.402616 8.938477 8.184045 80.133209 2.296509 -120.696254 37.132955 -48.967296 0.000000 0.000000 0.000000 
0.079092 0.935502 0.153289 -12.356595 -5.515179 7.914941 25.396960 3.117023 -21.249204 -6.730465 1.728522 20.938841 5.211978 11.412849 3.218006 0.000000 0.000000 0.000000 -7.909591 1.241499 -19.496067 6.941805 -0.804542 18.957872 -1.127564 -9.661370 18.303705 0.000000 0.000000 0.000000 -6.830934 0.689713 18.631223 -0.820128 0.645268 -23.591630 4.690102 8.551535 23.324455 -0.206733 1.206167 -6.815382 0.000000 0.000000 0.000000 26.941543 -19.134833 3.771964 10.897042 -29.679811 -4.035036 112.636772 23.074809 28.090256 0.000000 0.000000 0.000000 -0.948268 27.054600 9.548047 22.519516 80.018825 13.173151 -123.289429 40.420978 -56.045899 0.000000 0.000000 0.000000 
0.082997 0.929495 0.166542 -11.419544 -4.601637 6.872126 23.805992 2.840499 -22.365136 -5.900368 1.523707 23.883870 5.106023 11.281190 3.528920 0.000000 0.000000 0.000000 -8.401008 1.023540 -17.367809 6.164607 -0.667244 15.762054 -1.529343 -10.541046 19.959013 0.000000 0.000000 0.000000 -6.390242 0.558752 19.077397 -0.715436 0.694396 -25.776305 4.530960 7.325180 25.854217 0.272843 0.824401 -7.245414 0.000000 0.000000 0.000000 26.434497 -18.731744 3.424850 11.805825 -27.480374 -3.597865 113.368530 21.906507 26.805615 0.000000 0.000000 0.000000 1.382533 26.524520 9.868940 31.608047 78.743243 19.454624 -122.055612 43.390355 -58.812771 0.000000 0.000000 0.000000 
0.090685 0.924852 0.182315 -9.899561 -1.584405 5.226333 21.338356 2.124895 -23.991371 -4.837162 0.964659 26.994598 3.950558 9.514253 4.989264 0.000000 0.000000 0.000000 -10.090107 0.613627 -14.489516 4.577028 -0.439032 14.632498 -1.614661 -10.699975 22.906435 0.000000 0.000000 0.000000 -5.940837 0.336368 19.032750 -2.148964 1.061433 -25.078960 4.838179 6.714846 24.916657 0.946888 0.153095 -5.322135 0.000000 0.000000 0.000000 25.884877 -18.089963 3.714269 14.860413 -28.669393 -4.452219 112.315755 21.009554 24.050327 0.000000 0.000000 0.000000 2.751092 24.405537 9.509448 44.462387 77.759103 29.630840 -123.105593 45.181202 -61.794725 0.000000 0.000000 0.000000 
0.103525 0.925679 0.198222 -8.540652 0.721820 3.687942 19.305464 1.445649 -23.882469 -5.127479 0.843095 28.664896 2.931323 8.035521 6.063001 0.000000 0.000000 0.000000 -12.204866 0.290385 -10.772799 3.907478 -0.377124 12.942587 -2.413314 -11.838969 25.396422 0.000000 0.000000 0.000000 -5.470875 0.143831 18.614994 -2.042433 1.089860 -25.910372 5.077196 7.499897 25.375393 1.423025 -0.318365 -3.397672 0.000000 0.000000 0.000000 25.937387 -17.057415 4.058120 16.768184 -29.913248 -5.416344 109.827261 20.667898 20.749151 0.000000 0.000000 0.000000 2.601171 23.520231 9.263234 44.639220 77.780872 30.446359 -119.657138 43.158457 -54.884996 0.000000 0.000000 0.000000 
